<mxfile host="app.diagrams.net" modified="2021-07-07T09:37:23.148Z" agent="5.0 (Windows NT 10.0; Win64; x64) AppleWebKit/537.36 (KHTML, like Gecko) Chrome/91.0.4472.106 Safari/537.36" etag="6r0bJKZ7ahVtlj_ns878" version="14.8.4" type="github">
  <diagram id="rAuUh9Cvn7kcJRyMeB1o" name="Page-1">
    <mxGraphModel dx="1422" dy="762" grid="1" gridSize="10" guides="1" tooltips="1" connect="1" arrows="1" fold="1" page="1" pageScale="1" pageWidth="827" pageHeight="1169" math="0" shadow="0">
      <root>
        <mxCell id="0" />
        <mxCell id="1" parent="0" />
        <mxCell id="GV5hzrbCUiyIm_Ig4wvl-2" value="B24" style="swimlane;" vertex="1" parent="1">
          <mxGeometry x="120" y="30" width="410" height="720" as="geometry" />
        </mxCell>
        <mxCell id="GV5hzrbCUiyIm_Ig4wvl-4" value="Сделки" style="rounded=1;whiteSpace=wrap;html=1;" vertex="1" parent="GV5hzrbCUiyIm_Ig4wvl-2">
          <mxGeometry x="145" y="210" width="120" height="60" as="geometry" />
        </mxCell>
        <mxCell id="GV5hzrbCUiyIm_Ig4wvl-13" style="edgeStyle=orthogonalEdgeStyle;rounded=0;orthogonalLoop=1;jettySize=auto;html=1;exitX=0.5;exitY=0;exitDx=0;exitDy=0;entryX=0.5;entryY=1;entryDx=0;entryDy=0;" edge="1" parent="GV5hzrbCUiyIm_Ig4wvl-2" source="GV5hzrbCUiyIm_Ig4wvl-5" target="GV5hzrbCUiyIm_Ig4wvl-4">
          <mxGeometry relative="1" as="geometry" />
        </mxCell>
        <mxCell id="GV5hzrbCUiyIm_Ig4wvl-5" value="Заказы" style="rounded=1;whiteSpace=wrap;html=1;" vertex="1" parent="GV5hzrbCUiyIm_Ig4wvl-2">
          <mxGeometry x="145" y="310" width="120" height="60" as="geometry" />
        </mxCell>
        <mxCell id="GV5hzrbCUiyIm_Ig4wvl-10" style="edgeStyle=orthogonalEdgeStyle;rounded=0;orthogonalLoop=1;jettySize=auto;html=1;exitX=0.5;exitY=0;exitDx=0;exitDy=0;entryX=0.5;entryY=1;entryDx=0;entryDy=0;" edge="1" parent="GV5hzrbCUiyIm_Ig4wvl-2" source="GV5hzrbCUiyIm_Ig4wvl-6" target="GV5hzrbCUiyIm_Ig4wvl-5">
          <mxGeometry relative="1" as="geometry" />
        </mxCell>
        <mxCell id="GV5hzrbCUiyIm_Ig4wvl-6" value="Отгрузки" style="rounded=1;whiteSpace=wrap;html=1;" vertex="1" parent="GV5hzrbCUiyIm_Ig4wvl-2">
          <mxGeometry x="15" y="410" width="120" height="60" as="geometry" />
        </mxCell>
        <mxCell id="GV5hzrbCUiyIm_Ig4wvl-14" style="edgeStyle=orthogonalEdgeStyle;rounded=0;orthogonalLoop=1;jettySize=auto;html=1;exitX=0.5;exitY=0;exitDx=0;exitDy=0;entryX=0.5;entryY=1;entryDx=0;entryDy=0;" edge="1" parent="GV5hzrbCUiyIm_Ig4wvl-2" source="GV5hzrbCUiyIm_Ig4wvl-7" target="GV5hzrbCUiyIm_Ig4wvl-5">
          <mxGeometry relative="1" as="geometry" />
        </mxCell>
        <mxCell id="GV5hzrbCUiyIm_Ig4wvl-7" value="Оплаты" style="rounded=1;whiteSpace=wrap;html=1;" vertex="1" parent="GV5hzrbCUiyIm_Ig4wvl-2">
          <mxGeometry x="145" y="410" width="120" height="60" as="geometry" />
        </mxCell>
        <mxCell id="GV5hzrbCUiyIm_Ig4wvl-12" style="edgeStyle=orthogonalEdgeStyle;rounded=0;orthogonalLoop=1;jettySize=auto;html=1;exitX=0.5;exitY=0;exitDx=0;exitDy=0;entryX=0.5;entryY=1;entryDx=0;entryDy=0;" edge="1" parent="GV5hzrbCUiyIm_Ig4wvl-2" source="GV5hzrbCUiyIm_Ig4wvl-8" target="GV5hzrbCUiyIm_Ig4wvl-5">
          <mxGeometry relative="1" as="geometry" />
        </mxCell>
        <mxCell id="GV5hzrbCUiyIm_Ig4wvl-8" value="Товары" style="rounded=1;whiteSpace=wrap;html=1;" vertex="1" parent="GV5hzrbCUiyIm_Ig4wvl-2">
          <mxGeometry x="275" y="410" width="120" height="60" as="geometry" />
        </mxCell>
        <mxCell id="GV5hzrbCUiyIm_Ig4wvl-9" value="CRM.Company" style="rounded=1;whiteSpace=wrap;html=1;" vertex="1" parent="GV5hzrbCUiyIm_Ig4wvl-2">
          <mxGeometry x="145" y="50" width="120" height="60" as="geometry" />
        </mxCell>
        <mxCell id="GV5hzrbCUiyIm_Ig4wvl-3" value="Сайт" style="swimlane;" vertex="1" parent="1">
          <mxGeometry x="880" y="30" width="580" height="710" as="geometry" />
        </mxCell>
        <mxCell id="GV5hzrbCUiyIm_Ig4wvl-44" value="" style="edgeStyle=orthogonalEdgeStyle;rounded=0;orthogonalLoop=1;jettySize=auto;html=1;exitX=0.5;exitY=1;exitDx=0;exitDy=0;entryX=0.5;entryY=0;entryDx=0;entryDy=0;" edge="1" parent="GV5hzrbCUiyIm_Ig4wvl-3" source="GV5hzrbCUiyIm_Ig4wvl-15" target="GV5hzrbCUiyIm_Ig4wvl-19">
          <mxGeometry x="0.384" y="40" relative="1" as="geometry">
            <Array as="points">
              <mxPoint x="308" y="120" />
              <mxPoint x="570" y="120" />
              <mxPoint x="570" y="170" />
              <mxPoint x="308" y="170" />
            </Array>
            <mxPoint as="offset" />
          </mxGeometry>
        </mxCell>
        <mxCell id="GV5hzrbCUiyIm_Ig4wvl-15" value="Контрагент" style="rounded=1;whiteSpace=wrap;html=1;" vertex="1" parent="GV5hzrbCUiyIm_Ig4wvl-3">
          <mxGeometry x="247.5" y="50" width="120" height="60" as="geometry" />
        </mxCell>
        <mxCell id="GV5hzrbCUiyIm_Ig4wvl-17" value="Взаиморасчеты" style="swimlane;" vertex="1" parent="GV5hzrbCUiyIm_Ig4wvl-3">
          <mxGeometry x="50" y="130" width="515" height="360" as="geometry" />
        </mxCell>
        <mxCell id="GV5hzrbCUiyIm_Ig4wvl-19" value="Сделки" style="rounded=1;whiteSpace=wrap;html=1;" vertex="1" parent="GV5hzrbCUiyIm_Ig4wvl-17">
          <mxGeometry x="197.5" y="80" width="120" height="60" as="geometry" />
        </mxCell>
        <mxCell id="GV5hzrbCUiyIm_Ig4wvl-20" style="edgeStyle=orthogonalEdgeStyle;rounded=0;orthogonalLoop=1;jettySize=auto;html=1;exitX=0.5;exitY=0;exitDx=0;exitDy=0;entryX=0.5;entryY=1;entryDx=0;entryDy=0;" edge="1" parent="GV5hzrbCUiyIm_Ig4wvl-17" source="GV5hzrbCUiyIm_Ig4wvl-21" target="GV5hzrbCUiyIm_Ig4wvl-19">
          <mxGeometry relative="1" as="geometry" />
        </mxCell>
        <mxCell id="GV5hzrbCUiyIm_Ig4wvl-21" value="Заказы" style="rounded=1;whiteSpace=wrap;html=1;" vertex="1" parent="GV5hzrbCUiyIm_Ig4wvl-17">
          <mxGeometry x="197.5" y="180" width="120" height="60" as="geometry" />
        </mxCell>
        <mxCell id="GV5hzrbCUiyIm_Ig4wvl-22" style="edgeStyle=orthogonalEdgeStyle;rounded=0;orthogonalLoop=1;jettySize=auto;html=1;exitX=0.5;exitY=0;exitDx=0;exitDy=0;entryX=0.5;entryY=1;entryDx=0;entryDy=0;" edge="1" parent="GV5hzrbCUiyIm_Ig4wvl-17" source="GV5hzrbCUiyIm_Ig4wvl-23" target="GV5hzrbCUiyIm_Ig4wvl-21">
          <mxGeometry relative="1" as="geometry" />
        </mxCell>
        <mxCell id="GV5hzrbCUiyIm_Ig4wvl-23" value="Отгрузки" style="rounded=1;whiteSpace=wrap;html=1;" vertex="1" parent="GV5hzrbCUiyIm_Ig4wvl-17">
          <mxGeometry x="67.5" y="280" width="120" height="60" as="geometry" />
        </mxCell>
        <mxCell id="GV5hzrbCUiyIm_Ig4wvl-24" style="edgeStyle=orthogonalEdgeStyle;rounded=0;orthogonalLoop=1;jettySize=auto;html=1;exitX=0.5;exitY=0;exitDx=0;exitDy=0;entryX=0.5;entryY=1;entryDx=0;entryDy=0;" edge="1" parent="GV5hzrbCUiyIm_Ig4wvl-17" source="GV5hzrbCUiyIm_Ig4wvl-25" target="GV5hzrbCUiyIm_Ig4wvl-21">
          <mxGeometry relative="1" as="geometry" />
        </mxCell>
        <mxCell id="GV5hzrbCUiyIm_Ig4wvl-25" value="Оплаты" style="rounded=1;whiteSpace=wrap;html=1;" vertex="1" parent="GV5hzrbCUiyIm_Ig4wvl-17">
          <mxGeometry x="197.5" y="280" width="120" height="60" as="geometry" />
        </mxCell>
        <mxCell id="GV5hzrbCUiyIm_Ig4wvl-26" style="edgeStyle=orthogonalEdgeStyle;rounded=0;orthogonalLoop=1;jettySize=auto;html=1;exitX=0.5;exitY=0;exitDx=0;exitDy=0;entryX=0.5;entryY=1;entryDx=0;entryDy=0;" edge="1" parent="GV5hzrbCUiyIm_Ig4wvl-17" source="GV5hzrbCUiyIm_Ig4wvl-27" target="GV5hzrbCUiyIm_Ig4wvl-21">
          <mxGeometry relative="1" as="geometry" />
        </mxCell>
        <mxCell id="GV5hzrbCUiyIm_Ig4wvl-27" value="Товары" style="rounded=1;whiteSpace=wrap;html=1;" vertex="1" parent="GV5hzrbCUiyIm_Ig4wvl-17">
          <mxGeometry x="327.5" y="280" width="120" height="60" as="geometry" />
        </mxCell>
        <mxCell id="GV5hzrbCUiyIm_Ig4wvl-36" value="ID_company&lt;br&gt;date_start&lt;br&gt;date_end" style="text;html=1;align=center;verticalAlign=middle;resizable=0;points=[];autosize=1;strokeColor=none;" vertex="1" parent="GV5hzrbCUiyIm_Ig4wvl-17">
          <mxGeometry x="117.5" y="40" width="80" height="50" as="geometry" />
        </mxCell>
        <mxCell id="GV5hzrbCUiyIm_Ig4wvl-45" value="ID_company" style="text;html=1;align=center;verticalAlign=middle;resizable=0;points=[];autosize=1;strokeColor=none;" vertex="1" parent="GV5hzrbCUiyIm_Ig4wvl-17">
          <mxGeometry x="350" y="40" width="80" height="20" as="geometry" />
        </mxCell>
        <mxCell id="GV5hzrbCUiyIm_Ig4wvl-46" value="id_deal" style="text;html=1;align=center;verticalAlign=middle;resizable=0;points=[];autosize=1;strokeColor=none;" vertex="1" parent="GV5hzrbCUiyIm_Ig4wvl-17">
          <mxGeometry x="147.5" y="170" width="50" height="20" as="geometry" />
        </mxCell>
        <mxCell id="GV5hzrbCUiyIm_Ig4wvl-30" style="edgeStyle=orthogonalEdgeStyle;rounded=0;orthogonalLoop=1;jettySize=auto;html=1;exitX=0;exitY=0.25;exitDx=0;exitDy=0;entryX=1;entryY=0.25;entryDx=0;entryDy=0;" edge="1" parent="1" source="GV5hzrbCUiyIm_Ig4wvl-15" target="GV5hzrbCUiyIm_Ig4wvl-9">
          <mxGeometry relative="1" as="geometry" />
        </mxCell>
        <mxCell id="GV5hzrbCUiyIm_Ig4wvl-31" value="Запрос на получение id КА" style="text;html=1;align=center;verticalAlign=middle;resizable=0;points=[];autosize=1;strokeColor=none;" vertex="1" parent="1">
          <mxGeometry x="620" y="70" width="170" height="20" as="geometry" />
        </mxCell>
        <mxCell id="GV5hzrbCUiyIm_Ig4wvl-32" style="edgeStyle=orthogonalEdgeStyle;rounded=0;orthogonalLoop=1;jettySize=auto;html=1;exitX=1;exitY=0.75;exitDx=0;exitDy=0;entryX=0;entryY=0.75;entryDx=0;entryDy=0;" edge="1" parent="1" source="GV5hzrbCUiyIm_Ig4wvl-9" target="GV5hzrbCUiyIm_Ig4wvl-15">
          <mxGeometry relative="1" as="geometry" />
        </mxCell>
        <mxCell id="GV5hzrbCUiyIm_Ig4wvl-33" value="ID КА" style="text;html=1;align=center;verticalAlign=middle;resizable=0;points=[];autosize=1;strokeColor=none;" vertex="1" parent="1">
          <mxGeometry x="680" y="100" width="50" height="20" as="geometry" />
        </mxCell>
        <mxCell id="GV5hzrbCUiyIm_Ig4wvl-34" style="edgeStyle=orthogonalEdgeStyle;rounded=0;orthogonalLoop=1;jettySize=auto;html=1;exitX=0;exitY=0.25;exitDx=0;exitDy=0;entryX=1;entryY=0.25;entryDx=0;entryDy=0;" edge="1" parent="1" source="GV5hzrbCUiyIm_Ig4wvl-19" target="GV5hzrbCUiyIm_Ig4wvl-4">
          <mxGeometry relative="1" as="geometry" />
        </mxCell>
        <mxCell id="GV5hzrbCUiyIm_Ig4wvl-35" value="Запрос на получение сделок за промежуток времени КА" style="text;html=1;align=center;verticalAlign=middle;resizable=0;points=[];autosize=1;strokeColor=none;" vertex="1" parent="1">
          <mxGeometry x="540" y="230" width="330" height="20" as="geometry" />
        </mxCell>
        <mxCell id="GV5hzrbCUiyIm_Ig4wvl-37" style="edgeStyle=orthogonalEdgeStyle;rounded=0;orthogonalLoop=1;jettySize=auto;html=1;exitX=1;exitY=0.75;exitDx=0;exitDy=0;entryX=0;entryY=0.75;entryDx=0;entryDy=0;" edge="1" parent="1" source="GV5hzrbCUiyIm_Ig4wvl-4" target="GV5hzrbCUiyIm_Ig4wvl-19">
          <mxGeometry relative="1" as="geometry" />
        </mxCell>
        <mxCell id="GV5hzrbCUiyIm_Ig4wvl-38" value="Сделки" style="text;html=1;align=center;verticalAlign=middle;resizable=0;points=[];autosize=1;strokeColor=none;" vertex="1" parent="1">
          <mxGeometry x="675" y="260" width="60" height="20" as="geometry" />
        </mxCell>
        <mxCell id="GV5hzrbCUiyIm_Ig4wvl-39" style="edgeStyle=orthogonalEdgeStyle;rounded=0;orthogonalLoop=1;jettySize=auto;html=1;exitX=0;exitY=0.25;exitDx=0;exitDy=0;entryX=1;entryY=0.25;entryDx=0;entryDy=0;" edge="1" parent="1" source="GV5hzrbCUiyIm_Ig4wvl-21" target="GV5hzrbCUiyIm_Ig4wvl-5">
          <mxGeometry relative="1" as="geometry" />
        </mxCell>
        <mxCell id="GV5hzrbCUiyIm_Ig4wvl-40" value="Запрос на получение заказов, привязанных к сделкам" style="text;html=1;align=center;verticalAlign=middle;resizable=0;points=[];autosize=1;strokeColor=none;" vertex="1" parent="1">
          <mxGeometry x="545" y="330" width="320" height="20" as="geometry" />
        </mxCell>
        <mxCell id="GV5hzrbCUiyIm_Ig4wvl-41" style="edgeStyle=orthogonalEdgeStyle;rounded=0;orthogonalLoop=1;jettySize=auto;html=1;exitX=1;exitY=0.75;exitDx=0;exitDy=0;entryX=0;entryY=0.75;entryDx=0;entryDy=0;" edge="1" parent="1" source="GV5hzrbCUiyIm_Ig4wvl-5" target="GV5hzrbCUiyIm_Ig4wvl-21">
          <mxGeometry relative="1" as="geometry" />
        </mxCell>
        <mxCell id="GV5hzrbCUiyIm_Ig4wvl-42" value="Заказы" style="text;html=1;align=center;verticalAlign=middle;resizable=0;points=[];autosize=1;strokeColor=none;" vertex="1" parent="1">
          <mxGeometry x="675" y="360" width="60" height="20" as="geometry" />
        </mxCell>
        <mxCell id="GV5hzrbCUiyIm_Ig4wvl-43" value="Заказы содержат отгрузки, оплаты, товары" style="text;html=1;align=center;verticalAlign=middle;resizable=0;points=[];autosize=1;strokeColor=#6c8ebf;fillColor=#dae8fc;" vertex="1" parent="1">
          <mxGeometry x="575" y="500" width="260" height="20" as="geometry" />
        </mxCell>
      </root>
    </mxGraphModel>
  </diagram>
</mxfile>
